<svg xmlns="http://www.w3.org/2000/svg" viewBox="0 0 64 64" width="64" height="64">
  <defs>
    <linearGradient id="teachableGradient" x1="0%" y1="0%" x2="100%" y2="100%">
      <stop offset="0%" style="stop-color:#FF5252;stop-opacity:1" />
      <stop offset="100%" style="stop-color:#FF1744;stop-opacity:1" />
    </linearGradient>
  </defs>
  <rect width="64" height="64" rx="8" ry="8" fill="url(#teachableGradient)"/>
  <g fill="#FFFFFF">
    <path d="M18 20h28c1.1 0 2 .9 2 2v4c0 1.1-.9 2-2 2H18c-1.1 0-2-.9-2-2v-4c0-1.1.9-2 2-2z"/>
    <path d="M22 32h20c1.1 0 2 .9 2 2v4c0 1.1-.9 2-2 2H22c-1.1 0-2-.9-2-2v-4c0-1.1.9-2 2-2z" opacity="0.8"/>
    <path d="M26 44h12c1.1 0 2 .9 2 2v4c0 1.1-.9 2-2 2H26c-1.1 0-2-.9-2-2v-4c0-1.1.9-2 2-2z" opacity="0.6"/>
  </g>
</svg>
